# xmcd
#
# Track frame offsets: 
#        150
#        18672
#        33140
#        46470
#        60010
#        78480
#        99935
#        114362
#        127760
#        145020
#        164612
#        180995
#        196945
#        207362
#        222852
#        240587
#        254630
#        268705
#        280992
#        292982
#
# Disc length: 4064 seconds
#
# Revision: 0
# Processed by: cddbd v1.5.2PL0 Copyright (c) Steve Scherf et al.
# Submitted via: ExactAudioCopy v1.0b3
#
DISCID=140fde14
DTITLE=Reverend Gary Davis - Harlem Street Singer
DYEAR=1994
DGENRE=Blues
TTITLE0=Samson and Delilah
TTITLE1=Let Us Get Together Right Down Here 
TTITLE2=I Belong To The Band
TTITLE3=Pure Religion
TTITLE4=Great Change Since I Been Born
TTITLE5=Death Don't Have No Mercy
TTITLE6=Twelve Gates To The City
TTITLE7=Goin' To Sit Down On The Banks Of The River
TTITLE8=Tryin' To Get Home
TTITLE9=Lo, I Be With You Always
TTITLE10=I Am The Light Of This World
TTITLE11=Lord, I Feel Just Like Goin' On
TTITLE12=Blow, Gabriel
TTITLE13=Twelve Gates To The City
TTITLE14=Samson And Delilah
TTITLE15=Oh Lord, Search My Heart
TTITLE16=Get Right Church
TTITLE17=You Got To Go Down
TTITLE18=Keep Your Lamp Trimmed And Burning
TTITLE19=There Was A Time That I Was Blind
EXTD=
EXTT0=
EXTT1=
EXTT2=
EXTT3=
EXTT4=
EXTT5=
EXTT6=
EXTT7=
EXTT8=
EXTT9=
EXTT10=
EXTT11=
EXTT12=
EXTT13=
EXTT14=
EXTT15=
EXTT16=
EXTT17=
EXTT18=
EXTT19=
PLAYORDER=
